#!OML:ASF E:/inclinewalkrobotboard/Project1/Captureday1/Session1/subject1.ASF
:FULLY-SPECIFIED
:DEGREES
76
root 0 0 0 44.999669316909795 -47.116846081652824 -18.50272980683499
lowerback -6.497935065148256 3.6016952009005476 -0.48283657729810825
upperback -13.439075384920194 4.308981613692335 -0.07817705688711474
thorax -11.035446619004997 2.1110660000120776 0.6820074415556237
lowerneck -11.435607057656032 6.755554006763791 4.434310875155163
upperneck 18.189986858009433 7.22395552697337 7.277123411872781
head 7.640137892940931 4.22315644696933 2.1604885600831123
rclavicle 9.189563795122135E-16 -1.83198314592016E-15
rhumerus 7.878217184157876 -22.480452084509512 -48.4571753513316
rradius 27.931484794697077
rwrist 21.256221308085145
rhand 0.8312522440568859 7.3737577599678215
rfingers 7.125020000000029
rthumb 26.45028631874092 -19.679512148203045
lclavicle 1.4421420898201938E-15 -9.24404274632644E-16
lhumerus -10.522470506538939 3.8970422714770594 51.34022267024429
lradius 35.61772197911323
lwrist -7.813365508230689
lhand -1.7567548521780072 23.32824919565513
lfingers 7.125019999999976
lthumb 23.518918377539585 50.5005738041097
rfemur 58.87928329658011 -81.87119787787782 -56.059148804152734
rtibia 40.21405766171719
rfoot -18.423443755715777 -17.967866984039635
rtoes 21.62883605551395
lfemur -44.758540291313764 8.22856598021916 -27.127127399073604
ltibia 44.05755413785384
lfoot -22.777224197605566 14.917973559799982
ltoes 10.885636828514151
77
root 0 0 0 45.028271386595804 -47.135584926371564 -18.513242475726216
lowerback -6.50892151619966 3.6028032261586693 -0.48257053964051677
upperback -13.447442508060101 4.310848436803642 -0.07779013896394726
thorax -11.038571386934613 2.112017419661594 0.6828831954468582
lowerneck -11.431652926657872 6.7591931377602155 4.436510507923122
upperneck 18.190374549948253 7.228296137117807 7.280845304353374
head 7.639747517731635 4.2254998548912095 2.1615602105354794
rclavicle 9.15115926591179E-16 -1.830212361403995E-15
rhumerus 7.944386484460599 -22.480082962891988 -48.45287167142428
rradius 27.917990812290263
rwrist 21.292489938825707
rhand 0.8579219547345414 7.347964638606197
rfingers 7.125020000000029
rthumb 26.475484013026495 -19.701139967272937
lclavicle 1.4277589726704233E-15 -9.288447194750964E-16
lhumerus -10.492204751322518 3.9270272209746397 51.26308205046167
lradius 35.59962713067201
lwrist -7.860149283137045
lhand -1.748004373241077 23.33620408641913
lfingers 7.125019999999976
lthumb 23.530397993385755 50.50829002558063
rfemur 59.04683393363473 -82.06172980141213 -56.246588559618374
rtibia 40.213817486250015
rfoot -18.435088004750963 -17.99101795815775
rtoes 21.652207048778706
lfemur -44.824693456361665 8.252747443714549 -27.1363287414717
ltibia 44.07564370408838
lfoot -22.804910446618795 14.951770776762986
ltoes 10.917978663069729
78
root 0 0 0 45.01626255119596 -47.126974800494395 -18.50926437369999
lowerback -6.504326627852095 3.602765106936474 -0.4820989538828004
upperback -13.442844469076384 4.310679937319966 -0.07815027357489424
thorax -11.03616550328541 2.1118117340586244 0.6819259438350607
lowerneck -11.434231937551706 6.757128499195845 4.435652501875469
upperneck 18.191594137217766 7.225810684242418 7.278437258502395
head 7.640529746772785 4.224173793870922 2.160854256499748
rclavicle 9.16036795302617E-16 -1.8301371172484953E-15
rhumerus 7.929068241094681 -22.48038799963689 -48.45645160646789
rradius 27.9211120768445
rwrist 21.285756771170576
rhand 0.8498969826853653 7.355063179561934
rfingers 7.125020000000029
rthumb 26.46813705708265 -19.695118306131256
lclavicle 1.4330065254512644E-15 -9.282504644901789E-16
lhumerus -10.500448733275366 3.9188069073040754 51.285830105941685
lradius 35.60479489130665
lwrist -7.847545073123268
lhand -1.7504349919703959 23.333651477980855
lfingers 7.125019999999976
lthumb 23.527519668779252 50.505877865259514
rfemur 58.99095558389256 -81.99419814407992 -56.1799089575086
rtibia 40.213423263319896
rfoot -18.42785496272925 -17.98251834418028
rtoes 21.640150905371748
lfemur -44.79923933889171 8.242965485222161 -27.133529231753347
ltibia 44.068645678454814
lfoot -22.79192643883874 14.937853385407859
ltoes 10.903852979411413
79
root 0 0 0 45.0078271871905 -47.11846275665445 -18.50560494546573
lowerback -6.502094931702284 3.6020664512120124 -0.48236620898040655
upperback -13.440649263386518 4.309754420542104 -0.07779288504600368
thorax -11.034982331244779 2.1113946029029123 0.6822532494568112
lowerneck -11.434773822705083 6.755334728932034 4.4344792894579035
upperneck 18.19256701874439 7.223642596951299 7.277160123381895
head 7.640992072638943 4.223007478994675 2.1604531303307715
rclavicle 9.171841165563625E-16 -1.8307819471243328E-15
rhumerus 7.9125057716323095 -22.48068567883371 -48.456510681552736
rradius 27.925252616621915
rwrist 21.275699180776954
rhand 0.8432906878051512 7.361714428503374
rfingers 7.125020000000029
rthumb 26.461722300456614 -19.689639847733023
lclavicle 1.43544434332661E-15 -9.271095250644975E-16
lhumerus -10.50778416953037 3.9130697080224155 51.30164792397777
lradius 35.60770204652916
lwrist -7.838450132316776
lhand -1.7535033492226724 23.332266534214018
lfingers 7.125019999999976
lthumb 23.523824771194143 50.50475284096334
rfemur 58.9547544110744 -81.9542403746666 -56.14044545205675
rtibia 40.21350017742057
rfoot -18.42624732040107 -17.977700975234313
rtoes 21.635856256319286
lfemur -44.78255127774895 8.236984384317035 -27.130702409894873
ltibia 44.06391162400526
lfoot -22.78625627635724 14.929693888765183
ltoes 10.896507894438876
80
root 0 0 0 45.00047495156973 -47.11584134347221 -18.502885227952493
lowerback -6.4987640783684695 3.601744154967605 -0.4827043479608083
upperback -13.43895963685247 4.309128524676138 -0.07807141474943657
thorax -11.034912447969138 2.1111201810918296 0.6820324531093322
lowerneck -11.4356074486874 6.7551279811973 4.434191582366267
upperneck 18.191156668810045 7.22340901176503 7.276770140596241
head 7.6405895657352385 4.222874444685208 2.1603644275756873
rclavicle 9.170966695113532E-16 -1.8308025605856543E-15
rhumerus 7.898882994802582 -22.479374000002903 -48.46389818921916
rradius 27.927315632818484
rwrist 21.26833376862845
rhand 0.8355093813743224 7.368658319442237
rfingers 7.125020000000029
rthumb 26.45422843089199 -19.683897305180157
lclavicle 1.4377638550860434E-15 -9.25277364536023E-16
lhumerus -10.51794218059959 3.905870570952985 51.322008434243465
lradius 35.61034442814155
lwrist -7.826627444738448
lhand -1.7582998335791817 23.330855173474593
lfingers 7.125019999999976
lthumb 23.518245238162827 50.50380325416772
rfemur 58.89410516941331 -81.88766643226587 -56.07535068453213
rtibia 40.21396975146622
rfoot -18.424179429435735 -17.96983949197832
rtoes 21.630473999461522
lfemur -44.76206674596813 8.229720099861622 -27.12783180576362
ltibia 44.05856160805936
lfoot -22.77838405110366 14.919678933048665
ltoes 10.887046840681977
81
root 0 0 0 45.02347386246723 -47.13285239490695 -18.5120783041494
lowerback -6.506930377424092 3.60274875785568 -0.4824396756853095
upperback -13.446111509918673 4.3107414427462025 -0.07790558605382891
thorax -11.038158579370705 2.1118966006856468 0.6826392689993603
lowerneck -11.432589601503508 6.758758237215888 4.436232915816411
upperneck 18.189898811735397 7.227868689029286 7.280329681660119
head 7.639623193404653 4.225269188559825 2.161455184420451
rclavicle 9.12911968154575E-16 -1.83030676373026E-15
rhumerus 7.938173874351527 -22.480857881235146 -48.45652132188378
rradius 27.917570654634915
rwrist 21.293610353733428
rhand 0.8540426481668231 7.3508298739888325
rfingers 7.125020000000029
rthumb 26.472018390694828 -19.69864438991114
lclavicle 1.4308623133157097E-15 -9.30594313430458E-16
lhumerus -10.4993524718559 3.9252907901915552 51.27477999452117
lradius 35.59899194530402
lwrist -7.8562431681031315
lhand -1.7524354889559888 23.33582633135372
lfingers 7.125019999999976
lthumb 23.52615765049451 50.508669757038824
rfemur 59.023021098101296 -82.02506753105884 -56.212167987149385
rtibia 40.21464514212983
rfoot -18.425440589300813 -17.98438507944565
rtoes 21.641182059524684
lfemur -44.807303623317424 8.24720603191242 -27.132971555659783
ltibia 44.070044959364935
lfoot -22.795854115117997 14.941618450437861
ltoes 10.909902296615835
82
root 0 0 0 45.028179267833295 -47.13445268793366 -18.513544988272518
lowerback -6.508830773465367 3.6027098841652716 -0.4826655620742486
upperback -13.448049774300934 4.310626079196451 -0.0775273398433276
thorax -11.039101828977007 2.1118887978887404 0.6832536760319874
lowerneck -11.43133985752063 6.759272733049992 4.436313773942786
upperneck 18.1895539470094 7.228564100522272 7.28116368861753
head 7.639233712997452 4.225612274957295 2.161703385777612
rclavicle 9.143795863948502E-16 -1.829080978613278E-15
rhumerus 7.957934056041518 -22.482702729162245 -48.44454668135197
rradius 27.91377836936952
rwrist 21.30626410165378
rhand 0.8664642258990138 7.339531467688901
rfingers 7.125020000000029
rthumb 26.484450035512438 -19.70805807563853
lclavicle 1.4237679693510807E-15 -9.327418245252411E-16
lhumerus -10.485263971053472 3.930164294496324 51.25383997755275
lradius 35.59935065092866
lwrist -7.865704098076405
lhand -1.7450903884181717 23.336570454085958
lfingers 7.125019999999976
lthumb 23.534136241719743 50.50842686485809
rfemur 59.10653129375243 -82.12092366358748 -56.30344389941869
rtibia 40.21278941313701
rfoot -18.43154409780164 -17.996972370325963
rtoes 21.65245636732864
lfemur -44.84276118996307 8.258167295694202 -27.13941497428681
ltibia 44.081116050658146
lfoot -22.809488885776396 14.959893833618548
ltoes 10.924477280381598
